<svg width="20" height="19" viewBox="0 0 20 19" fill="none" xmlns="http://www.w3.org/2000/svg">
<g id="cancel-svgrepo-com 2" clip-path="url(#clip0_714_27)">
<g id="Group">
<g id="Group_2">
<path id="Vector" d="M10.3752 0.0025177C5.13079 0.0025177 0.879181 4.25419 0.879181 9.49864C0.879181 14.7429 5.13072 18.995 10.3751 18.995C15.6195 18.995 19.8715 14.7429 19.8715 9.49864C19.8715 4.25419 15.6196 0.0025177 10.3752 0.0025177ZM13.9574 13.118C13.5783 13.4968 12.9641 13.4968 12.5852 13.118L10.4244 10.9572L8.16524 13.2164C7.78628 13.5952 7.17201 13.5952 6.79324 13.2164C6.41409 12.8371 6.41409 12.223 6.79324 11.8439L9.05224 9.58487L6.94892 7.48167C6.57008 7.10239 6.57008 6.48831 6.94892 6.10929C7.32787 5.73033 7.94227 5.73033 8.3213 6.10929L10.4245 8.21249L12.4295 6.20735C12.8085 5.82852 13.4231 5.82839 13.8017 6.20735C14.1808 6.58663 14.1808 7.20109 13.8017 7.57973L11.7969 9.58474L13.9576 11.7456C14.3364 12.1243 14.3366 12.7389 13.9574 13.118Z" fill="#3A72F8"/>
</g>
</g>
</g>
<defs>
<clipPath id="clip0_714_27">
<rect width="18.9924" height="18.9924" fill="white" transform="translate(0.879089 0.0025177)"/>
</clipPath>
</defs>
</svg>
