<svg width="20" height="24" viewBox="0 0 20 24" fill="none" xmlns="http://www.w3.org/2000/svg">
<g id="Group">
<path id="Vector" d="M15.6643 2.43614H11.2583V0.428207H5.27507V2.43614H0.869019V5.60657H15.6643V2.43614ZM6.86028 2.01342H9.67308V2.43614H6.86028V2.01342Z" fill="#3A72F8"/>
<path id="Vector_2" d="M14.2565 11.7525L14.5556 7.1918H1.97783L2.98264 22.5155H9.01554C8.23028 21.4023 7.7684 20.0454 7.7684 18.5826C7.7684 14.9292 10.6479 11.9358 14.2565 11.7525Z" fill="#3A72F8"/>
<path id="Vector_3" d="M14.6075 13.3287C11.7105 13.3287 9.35361 15.6856 9.35361 18.5826C9.35361 21.4796 11.7105 23.8365 14.6075 23.8365C17.5046 23.8365 19.8615 21.4796 19.8615 18.5826C19.8615 15.6856 17.5046 13.3287 14.6075 13.3287ZM17.4702 20.3244L16.3493 21.4453L14.6075 19.7035L12.8658 21.4453L11.7448 20.3244L13.4866 18.5826L11.7448 16.8408L12.8658 15.7199L14.6075 17.4617L16.3493 15.7199L17.4702 16.8408L15.7284 18.5826L17.4702 20.3244Z" fill="#3A72F8"/>
</g>
</svg>
