<svg width="20" height="20" viewBox="0 0 20 20" fill="none" xmlns="http://www.w3.org/2000/svg">
<g id="edit-svgrepo-com 2" clip-path="url(#clip0_714_61)">
<g id="Group">
<path id="Vector" d="M19.4099 4.01918L16.2506 0.859439C16.1131 0.722003 15.9268 0.644836 15.7325 0.644836C15.5382 0.644836 15.3518 0.722003 15.2145 0.859341L12.0545 4.01928C12.0541 4.01967 12.0538 4.02026 12.0533 4.02065L5.99244 10.0815C5.86047 10.2135 5.78389 10.3907 5.77823 10.5773L5.67908 13.836C5.67293 14.0379 5.75049 14.2333 5.89329 14.3763C6.03092 14.5138 6.2173 14.5908 6.41129 14.5908C6.41871 14.5908 6.42623 14.5907 6.43366 14.5904L9.69225 14.4909C9.87872 14.4853 10.056 14.4087 10.188 14.2768L19.4099 5.05507C19.696 4.76917 19.696 4.30528 19.4099 4.01918ZM15.7322 6.66063L13.6086 4.53737L15.7325 2.41352L17.8558 4.53718L15.7322 6.66063ZM9.35731 13.0355L7.16723 13.1024L7.23385 10.9122L12.5725 5.57346L14.6962 7.69682L9.35731 13.0355Z" fill="#3A72F8"/>
<path id="Vector_2" d="M13.5443 12.0823C13.1398 12.0823 12.8117 12.4103 12.8117 12.8149V18.1721H2.09746V7.45779H7.4546C7.85919 7.45779 8.1872 7.12988 8.1872 6.7252C8.1872 6.32051 7.85919 5.9926 7.4546 5.9926H1.36486C0.960271 5.9926 0.632263 6.32051 0.632263 6.7252V18.9046C0.632263 19.3093 0.960271 19.6372 1.36486 19.6372H13.5442C13.9488 19.6372 14.2768 19.3093 14.2768 18.9046V12.8148C14.2769 12.4103 13.9489 12.0823 13.5443 12.0823Z" fill="#3A72F8"/>
</g>
</g>
<defs>
<clipPath id="clip0_714_61">
<rect width="18.9924" height="18.9924" fill="white" transform="translate(0.632263 0.644836)"/>
</clipPath>
</defs>
</svg>
