<svg width="20" height="21" viewBox="0 0 20 21" fill="none" xmlns="http://www.w3.org/2000/svg">
<g id="Group">
<g id="c194_arrow">
<path id="Vector" d="M10.0183 20.2871C15.4509 20.2871 19.8535 15.8859 19.8535 10.4534C19.8535 5.02225 15.4509 0.619658 10.0183 0.619658C4.5894 0.619658 0.18388 5.02225 0.18388 10.4534C0.183149 15.8859 4.5894 20.2871 10.0183 20.2871ZM3.18688 9.11074L7.82907 4.46928C8.43244 3.86444 9.37841 3.83595 9.9438 4.40061C10.5077 4.96527 10.4785 5.91124 9.87514 6.51389L7.65448 8.736L15.8746 8.736C16.6759 8.736 17.3224 9.38467 17.3238 10.1831C17.3238 10.9822 16.6759 11.6294 15.8746 11.6294L7.61212 11.6294L9.84446 13.8603C10.4376 14.4549 10.4632 15.3965 9.89559 15.9604C9.33093 16.5244 8.39227 16.5017 7.79839 15.9071L3.21756 11.3285C3.19784 11.3088 3.18323 11.2832 3.16643 11.2642C3.14962 11.2496 3.13209 11.2401 3.11821 11.2247C2.55282 10.663 2.58277 9.71558 3.18688 9.11074Z" fill="#3A72F8"/>
</g>
</g>
</svg>
