<svg width="20" height="20" viewBox="0 0 20 20" fill="none" xmlns="http://www.w3.org/2000/svg">
<g clip-path="url(#clip0_650_126)">
<path d="M9.9043 0.619644C4.66823 0.619644 0.408081 4.87943 0.408081 10.1159C0.408081 15.3523 4.66823 19.6121 9.9043 19.6121C15.1404 19.6121 19.4005 15.3523 19.4005 10.1159C19.4005 4.87943 15.1404 0.619644 9.9043 0.619644ZM14.4698 10.8463H10.6348V14.864C10.6348 15.2672 10.3075 15.5945 9.9043 15.5945C9.50108 15.5945 9.17382 15.2672 9.17382 14.864V10.8463H5.33881C4.93559 10.8463 4.60833 10.5191 4.60833 10.1159C4.60833 9.71264 4.93559 9.38539 5.33881 9.38539H9.17382V5.73299C9.17382 5.32977 9.50108 5.00252 9.9043 5.00252C10.3075 5.00252 10.6348 5.32977 10.6348 5.73299V9.38539H14.4698C14.873 9.38539 15.2003 9.71264 15.2003 10.1159C15.2003 10.5191 14.873 10.8463 14.4698 10.8463Z" fill="#3A72F8"/>
</g>
<defs>
<clipPath id="clip0_650_126">
<rect width="18.9924" height="18.9924" fill="white" transform="translate(0.408081 0.619644)"/>
</clipPath>
</defs>
</svg>
