<svg width="21" height="21" viewBox="0 0 21 21" fill="none" xmlns="http://www.w3.org/2000/svg">
<g id="Group">
<g id="c194_arrow">
<path id="Vector" d="M10.7369 0.619644C5.30436 0.619644 0.901764 5.02078 0.901764 10.4533C0.901764 15.8845 5.30436 20.2871 10.7369 20.2871C16.1658 20.2871 20.5714 15.8845 20.5714 10.4533C20.5721 5.02078 16.1658 0.619644 10.7369 0.619644ZM17.5684 11.796L12.9262 16.4374C12.3228 17.0423 11.3768 17.0708 10.8114 16.5061C10.2475 15.9414 10.2767 14.9955 10.8801 14.3928L13.1008 12.1707H4.88068C4.07935 12.1707 3.43287 11.522 3.43141 10.7236C3.43141 9.92448 4.07935 9.27728 4.88068 9.27728H13.1431L10.9108 7.0464C10.3176 6.45179 10.2921 5.5102 10.8596 4.94627C11.4243 4.38234 12.363 4.40498 12.9569 4.99959L17.5377 9.57823C17.5574 9.59796 17.572 9.62352 17.5888 9.64252C17.6056 9.65713 17.6231 9.66662 17.637 9.68196C18.2024 10.2437 18.1725 11.1911 17.5684 11.796Z" fill="#3A72F8"/>
</g>
</g>
</svg>
