<svg width="20" height="21" viewBox="0 0 20 21" fill="none" xmlns="http://www.w3.org/2000/svg">
<path id="Vector" d="M0.745615 0.272049C0.347231 0.272049 0.0151367 0.604143 0.0151367 1.00253V18.534C0.0151367 18.9324 0.347231 19.2645 0.745615 19.2645H10.5614V18.534H0.745615V1.00253H3.639V5.45525C3.639 5.6344 3.79619 5.77917 3.99145 5.77917H11.7441C11.9394 5.77917 12.0966 5.63445 12.0966 5.4553V1.00253H15.2568C15.2763 1.01705 15.2933 1.02755 15.3238 1.05247C15.4174 1.12895 15.5503 1.24715 15.7061 1.39059C16.0178 1.67744 16.4206 2.06798 16.8161 2.46348C17.2117 2.85899 17.6022 3.26181 17.889 3.57349C18.0325 3.72931 18.1506 3.86221 18.2272 3.95581C18.2521 3.9863 18.2626 4.00329 18.2771 4.02292V13.1581L19.0076 13.8886V3.92444C19.0076 3.80209 18.9776 3.76912 18.9606 3.7347C18.9434 3.70028 18.9275 3.67562 18.9106 3.65051C18.8768 3.60029 18.8387 3.55053 18.7921 3.49355C18.6992 3.37978 18.5745 3.24017 18.4255 3.07841C18.1277 2.75472 17.7336 2.34793 17.3326 1.94699C16.9317 1.546 16.5249 1.15196 16.2013 0.854103C16.0395 0.705177 15.9 0.580448 15.7861 0.487495C15.7292 0.440927 15.6794 0.402805 15.6292 0.36902C15.6041 0.352128 15.5794 0.336148 15.545 0.319073C15.5106 0.302044 15.4775 0.272049 15.3552 0.272049H0.745615V0.272049ZM4.75046 1.00253H6.96747C7.16273 1.00253 7.31992 1.20455 7.31992 1.45625V4.65775C7.31992 4.90945 7.16273 5.11147 6.96747 5.11147H4.75046C4.5552 5.11147 4.39801 4.90945 4.39801 4.65775V1.45625C4.39801 1.2046 4.5552 1.00257 4.75046 1.00257V1.00253ZM3.02836 7.75945C2.82602 7.75945 2.66312 7.92235 2.66312 8.12469V16.5252C2.66312 16.7275 2.82602 16.8904 3.02836 16.8904H10.5614V15.6121H7.05878L7.75935 14.9102L13.6032 9.06633L13.8942 8.77665L14.1853 9.06633L16.3596 11.2406V8.12469C16.3596 7.92235 16.1967 7.75945 15.9944 7.75945H3.02836ZM13.8942 9.93948L9.0434 14.7903H11.3832V20.6341H16.4052V14.7903H18.7451L13.8942 9.93948ZM18.2771 15.6121V18.534H17.227V19.2645H18.2771C18.6755 19.2645 19.0076 18.9324 19.0076 18.534V15.6121H18.2771Z" fill="#3A72F8"/>
</svg>
